PathFileType  4	(X/Y/Z) C:\Users\antoi\Documents\MyRepositories\mobilecap\ResultsAnalysis
DataRate	CameraRate	NumFrames	NumMarkers	Units	OrigDataRate	OrigDataStartFrame	OrigNumFrames
100.0	100.0	7	51	mm	100.0	17	130
Frame#	Time	r_knee			r_shank_antsup			r_ankle			r_calc			r_5meta			r_toe			L_knee			L_shank_antsup			L_ankle			L_calc			L_5meta			L_toe			r_sh2			r_sh3			r_sh4			L_sh2			L_sh3			r_thigh1			r_thigh2			r_thigh3			r_thigh4			r_thigh5			L_thigh1			L_thigh2			L_thigh3			L_thigh4			r.ASIS			r.PSIS			L.ASIS			L.PSIS			C7			R_Shoulder			L_Shoulder			R_Sternum			L_Sternum			R_humerus			R_elbow_med			R_elbow_lat			R_forearm			R_wrist_radius			R_wrist_ulna			L_humerus			L_elbow_med			L_elbow_lat			L_forearm			L_wrist_radius			L_wrist_ulna			R_HJC			L_HJC			R_HJC_reg			L_HJC_reg			
		X1	Y1	Z1	X2	Y2	Z2	X3	Y3	Z3	X4	Y4	Z4	X5	Y5	Z5	X6	Y6	Z6	X7	Y7	Z7	X8	Y8	Z8	X9	Y9	Z9	X10	Y10	Z10	X11	Y11	Z11	X12	Y12	Z12	X13	Y13	Z13	X14	Y14	Z14	X15	Y15	Z15	X16	Y16	Z16	X17	Y17	Z17	X18	Y18	Z18	X19	Y19	Z19	X20	Y20	Z20	X21	Y21	Z21	X22	Y22	Z22	X23	Y23	Z23	X24	Y24	Z24	X25	Y25	Z25	X26	Y26	Z26	X27	Y27	Z27	X28	Y28	Z28	X29	Y29	Z29	X30	Y30	Z30	X31	Y31	Z31	X32	Y32	Z32	X33	Y33	Z33	X34	Y34	Z34	X35	Y35	Z35	X36	Y36	Z36	X37	Y37	Z37	X38	Y38	Z38	X39	Y39	Z39	X40	Y40	Z40	X41	Y41	Z41	X42	Y42	Z42	X43	Y43	Z43	X44	Y44	Z44	X45	Y45	Z45	X46	Y46	Z46	X47	Y47	Z47	X48	Y48	Z48	X49	Y49	Z49	X50	Y50	Z50	X51	Y51	Z51	

17	0.16000000	116.99128	460.93820	-111.75400	141.45679	390.25946	-92.69260	138.58746	88.90951	-138.55011	68.26090	57.94892	-174.79128	241.31414	47.83600	-115.69396	282.01314	71.28022	-172.18698	-178.58993	434.84095	-387.04902	-207.79138	369.33430	-391.83488	-466.31184	206.94478	-337.30386	-508.38702	258.46963	-282.57813	-494.50645	99.02591	-355.88720	-448.56537	60.85922	-311.76828	152.17261	278.43834	-94.89012	65.80147	382.37177	-94.36935	69.87943	266.30031	-100.18689	-258.81493	443.71822	-392.62567	-352.25341	365.44429	-383.79989	63.01846	771.42045	-102.03401	110.77329	668.56822	-103.91208	77.93201	630.03460	-57.52402	-20.12637	734.20475	-33.12726	19.96983	626.66228	-49.97428	-50.20868	700.21470	-400.41119	-72.76884	564.69020	-408.11060	-167.18903	719.04984	-395.90469	-179.67913	577.41978	-390.36995	19.47511	888.54981	-110.78436	-173.25702	887.51198	-159.01249	-12.89327	869.28351	-368.21774	-187.81094	881.43706	-264.51185	-142.68445	1358.78096	-212.70800	-80.02555	1298.47699	-60.07418	-86.73588	1309.13382	-377.76827	-24.55655	1276.62838	-197.86310	-26.62980	1277.35972	-242.39924	-78.12620	1055.96384	14.32499	-116.74815	954.57254	-46.53813	-110.60993	972.66556	22.88266	-77.33840	861.30886	55.68193	-71.13943	742.22326	69.59693	-116.59892	740.51597	66.74392	-28.41096	1193.86329	-434.49529	-35.97205	968.09633	-428.89317	-26.51868	988.75096	-486.85457	75.04459	939.30053	-497.29467	164.48793	850.46221	-485.12333	144.41441	825.35829	-508.06623	-43.52159	806.76741	-125.78444	-67.39045	796.19667	-324.31278	-38.92340	796.40047	-134.74730	-62.34490	786.61821	-304.54966	
18	0.17000000	128.29182	462.01900	-110.14410	150.97529	390.36402	-90.95509	139.00840	89.34800	-138.24656	68.37996	58.18280	-174.59706	241.50825	47.16013	-115.26992	282.40261	69.78855	-171.97283	-150.49557	432.25412	-388.18354	-181.11116	367.94802	-393.06860	-444.01417	214.58402	-335.41268	-481.40030	268.34256	-279.04280	-478.73829	108.51726	-354.88758	-434.19239	66.48544	-312.40673	158.41559	278.23773	-93.39443	75.02151	384.65642	-92.27432	75.90071	268.39405	-98.56567	-229.96014	443.66768	-392.29745	-325.50364	368.16987	-382.49626	77.39262	773.81496	-100.42091	124.33496	670.55445	-102.41961	91.45729	632.24581	-55.81325	-5.82618	737.06393	-31.31441	33.45349	629.21204	-48.23769	-30.29798	700.98900	-398.84151	-48.17235	564.91331	-407.77225	-148.04352	715.96025	-395.09760	-155.54261	573.89840	-390.72261	33.68826	891.74452	-108.54984	-158.94739	889.76497	-159.22237	2.88974	870.39153	-366.28714	-172.79920	882.10622	-264.90414	-127.34312	1360.89343	-211.14482	-63.83151	1300.51205	-58.76023	-71.35206	1310.84076	-376.20752	-9.37737	1278.28728	-196.35585	-11.56528	1278.97325	-240.80443	-59.40712	1057.90745	15.41632	-98.51476	956.39883	-45.11645	-91.59325	974.48574	24.36586	-57.13656	863.15578	56.32431	-50.14555	744.01274	69.87366	-95.77117	742.18151	67.80975	-14.24353	1194.92114	-433.06402	-23.98864	969.30891	-426.23292	-14.68904	989.51095	-484.29577	85.40973	937.79568	-496.02762	172.50627	846.85612	-484.85057	151.72278	822.11683	-507.32291	-29.24896	809.63959	-123.84441	-51.24952	797.27023	-322.49903	-24.54905	799.98953	-131.62184	-46.82747	787.66427	-301.62157	
19	0.18000000	138.12364	462.62567	-108.44465	159.13181	390.14573	-89.12361	139.22801	89.75970	-137.87091	68.43943	58.35427	-174.40828	241.59527	46.70948	-114.86907	282.61064	68.75961	-171.70433	-121.91919	430.30065	-389.08172	-153.67615	366.99104	-393.93654	-420.31948	222.10486	-333.33705	-454.58867	276.95074	-275.55503	-459.10228	117.83902	-354.13729	-415.55542	72.95997	-312.88175	163.62371	277.81719	-91.82027	83.00480	386.39229	-90.32592	80.93083	270.11237	-97.12940	-200.53928	443.84470	-391.95230	-297.85460	370.88184	-381.19874	91.28507	775.74150	-98.94523	137.27355	671.93044	-100.78543	103.95649	634.01806	-54.09521	7.82170	739.87425	-29.69498	45.94476	631.53423	-46.56296	-10.62612	702.24804	-397.29713	-23.56417	565.74527	-407.20532	-128.98790	713.11350	-394.34396	-131.22934	570.81108	-390.85149	47.57363	895.18035	-106.54836	-144.90050	892.10674	-159.27761	18.02039	871.96348	-364.49226	-158.20935	883.16281	-265.09025	-112.19439	1363.26256	-209.81956	-47.85931	1302.83720	-57.73838	-56.23056	1312.90180	-374.79228	5.56372	1280.13980	-195.13909	3.25930	1280.81231	-239.49833	-40.70838	1060.23395	16.25061	-80.34974	958.55420	-43.75411	-72.57331	976.71250	25.75851	-36.59890	865.45502	56.78100	-28.71535	746.30983	70.01195	-74.43946	744.24160	68.86006	-0.26612	1196.43629	-431.73568	-12.31299	971.06703	-423.46232	-3.19459	990.71079	-481.66559	95.24462	936.55024	-494.74068	179.75881	843.32818	-484.60290	158.13575	819.00120	-506.44900	-15.20183	812.70922	-122.07652	-35.65860	798.77030	-320.81683	-10.36014	803.57920	-128.91178	-31.75377	789.19569	-299.02692	
20	0.19000000	146.67374	462.80857	-106.87006	166.12075	389.66199	-87.46778	139.41450	90.10616	-137.52506	68.49903	58.50623	-174.25435	241.65053	46.40329	-114.54974	282.74351	68.00398	-171.48048	-93.03737	429.16745	-389.70166	-125.67298	366.59025	-394.38277	-395.37728	229.29969	-331.20627	-428.26168	284.26196	-272.32871	-435.60002	126.43912	-353.57371	-392.50078	79.87564	-313.07442	168.03987	277.22286	-90.41076	89.92941	387.61271	-88.74171	85.16345	271.49384	-96.03756	-170.78251	444.39813	-391.63098	-269.55588	373.69325	-379.95285	104.70760	777.11151	-97.61350	149.60377	672.66058	-99.06545	115.47783	635.27494	-52.44219	20.86166	742.53413	-28.30088	57.46043	633.56234	-45.05641	8.79980	704.05925	-395.76942	0.92669	567.27860	-406.43962	-110.00029	710.70441	-393.56980	-106.84296	568.35460	-390.71911	61.22364	898.60685	-104.84951	-131.04386	894.50827	-159.01352	32.54503	874.02076	-362.87063	-143.99057	884.61692	-264.89864	-97.25615	1365.83817	-208.70945	-32.14322	1305.38957	-56.99420	-41.44882	1315.27689	-373.53960	20.25924	1282.16926	-194.21761	17.85034	1282.86262	-238.48795	-22.10873	1062.88090	16.83062	-62.33762	960.97539	-42.41173	-53.61776	979.27824	27.06441	-15.79605	868.15559	57.05083	-6.86114	749.06612	70.00337	-52.61300	746.63452	69.87803	13.47094	1198.34794	-430.53792	-0.92868	973.31017	-420.62989	7.94734	992.32221	-479.03248	104.55707	935.56759	-493.47205	186.32885	839.90211	-484.40515	163.71185	816.07664	-505.47236	-1.29543	815.79715	-120.51289	-20.66494	800.70460	-319.30153	3.64066	807.08313	-126.68655	-17.15907	791.18769	-296.81501	
21	0.20000000	154.20725	462.69587	-105.57694	172.15775	389.02578	-86.17602	139.65606	90.38099	-137.27853	68.58909	58.65933	-174.14944	241.71368	46.20335	-114.32827	282.85504	67.40330	-171.35208	-63.99896	428.98040	-390.02378	-97.23268	366.83854	-394.38389	-369.32005	235.91426	-329.16946	-402.41786	290.27051	-269.55472	-408.58565	133.83653	-353.07347	-365.35827	86.74214	-312.87806	171.86661	276.54966	-89.32300	95.98199	388.44719	-87.65686	88.77479	272.64199	-95.36435	-140.87435	445.43439	-391.35734	-240.81209	376.66678	-378.80270	117.65418	777.96155	-96.45397	161.34710	672.84905	-97.40006	126.16539	636.06898	-50.95348	33.38961	745.00270	-27.13099	68.13001	635.32051	-43.79189	27.99705	706.47477	-394.24845	25.20028	569.58058	-405.50646	-91.04910	708.91003	-392.72000	-82.48816	566.69264	-390.34016	74.71958	901.82186	-103.46511	-117.32642	896.97411	-158.33378	46.56588	876.56172	-361.43339	-130.09447	886.46973	-264.22331	-82.53809	1368.58407	-207.78533	-16.71410	1308.10440	-56.49496	-27.05405	1317.91865	-372.47330	34.70964	1284.36931	-193.57829	32.21491	1285.11356	-237.76499	-3.68292	1065.77465	17.17397	-44.55532	963.58772	-41.04622	-34.76661	982.09573	28.28905	5.18397	871.18541	57.14197	15.40082	752.21234	69.84367	-30.30762	749.28736	70.83457	26.91734	1200.56732	-429.49828	10.16820	975.93899	-417.80727	18.74228	994.28531	-476.46901	113.36879	934.82878	-492.26364	192.30538	836.58839	-484.28096	168.53863	813.39123	-504.42997	12.52211	818.76695	-119.15776	-6.26656	803.06498	-317.96793	17.44794	810.46517	-124.93939	-3.05374	793.59575	-294.97655	
22	0.21000000	160.97813	462.43215	-104.62695	177.42825	388.35906	-85.31075	139.97516	90.60087	-137.15828	68.71616	58.82096	-174.09330	241.79888	46.08748	-114.18899	282.97071	66.89213	-171.32274	-34.92065	429.78379	-390.05194	-68.43269	367.76375	-393.95425	-342.25461	241.67027	-327.34567	-376.81152	294.96107	-267.35291	-378.67917	139.69357	-352.49331	-334.83590	93.07630	-312.21924	175.23831	275.90011	-88.59539	101.31798	389.05652	-87.09924	91.91211	273.66292	-95.10055	-110.95377	446.97711	-391.14464	-211.76805	379.76113	-377.79964	130.11337	778.41880	-95.51625	172.51919	672.67186	-95.97205	136.21195	636.53380	-49.73029	45.51912	747.28617	-26.15621	78.15515	636.88718	-42.79251	46.99110	709.51825	-392.72445	49.17796	572.68124	-404.42870	-72.11119	707.86388	-391.76598	-58.26809	565.92835	-389.76681	88.12332	904.70032	-102.35342	-103.71803	899.52529	-157.23064	60.21244	879.54773	-360.16830	-116.47202	888.70759	-263.04959	-68.04018	1371.47433	-207.01998	-1.59416	1310.92439	-56.19477	-13.06417	1320.77345	-371.61979	48.92649	1286.74126	-193.19210	46.35953	1287.55629	-237.30906	14.50101	1068.84296	17.31184	-27.06422	966.31771	-39.62664	-16.03679	985.07401	29.43726	26.24699	874.46576	57.06883	38.03897	755.67852	69.52540	-7.54862	752.13329	71.69132	40.02920	1202.99095	-428.63679	20.96778	978.83303	-415.08236	29.21893	996.51471	-474.04051	121.71786	934.30172	-491.15138	197.76568	833.40120	-484.23828	172.72561	810.97417	-503.36303	26.26670	821.53914	-117.99374	7.58748	805.81781	-316.81193	31.05800	813.72022	-123.60352	10.58578	796.35518	-293.46275	
23	0.22000000	167.17166	462.13164	-103.98734	182.06588	387.75552	-84.81209	140.35376	90.79228	-137.15188	68.87122	58.99253	-174.07508	241.90450	46.03449	-114.10147	283.10306	66.43940	-171.36487	-5.89296	431.53723	-389.80793	-39.32063	369.31511	-393.14262	-314.25805	246.30072	-325.78322	-351.08786	298.29831	-265.74915	-346.60680	143.84705	-351.71855	-301.80859	98.48590	-311.07239	178.22324	275.34998	-88.16131	106.04730	389.57848	-86.99354	94.68658	274.62622	-95.17470	-81.12927	448.95228	-391.00426	-182.51597	382.81590	-377.00457	142.09609	778.65597	-94.84780	183.12919	672.30863	-94.93997	145.81215	636.82780	-48.84129	57.35248	749.41797	-25.33081	87.75231	638.35284	-42.03020	65.79685	713.17547	-391.19361	72.79754	576.56520	-403.22322	-53.18404	707.63619	-390.70968	-34.27408	566.08729	-389.06781	101.46797	907.20028	-101.43696	-90.20605	902.18259	-155.78229	73.61053	882.89984	-359.04640	-103.06976	891.29648	-261.46015	-53.75021	1374.48550	-206.39025	13.20885	1313.80674	-56.04160	0.52859	1323.78228	-370.99934	62.93222	1289.28647	-193.01919	60.29289	1290.17943	-237.09046	32.38293	1072.02610	17.28683	-9.90273	969.10560	-38.14509	2.56179	988.13698	30.51478	47.30852	877.93070	56.84648	61.00025	759.41186	69.02962	15.62272	755.12869	72.40649	52.77585	1205.51417	-427.96276	31.45259	981.86918	-412.54413	39.41692	998.91138	-471.79868	129.65610	933.95123	-490.15848	202.76395	830.37502	-484.25968	176.39451	808.83878	-502.31378	39.92072	824.09023	-116.99222	20.98623	808.90050	-315.81722	44.46403	816.85765	-122.57816	23.81527	799.38411	-292.20738	
